<svg width="15" height="12" viewBox="0 0 15 12" fill="none" xmlns="http://www.w3.org/2000/svg"><path d="M12.4075 8.75362C12.4003 8.77807 12.3928 8.79446 12.385 8.8028C11.6861 10.021 10.718 10.8903 9.48078 11.4107C8.24352 11.931 6.95502 11.9939 5.61527 11.5993C4.90139 11.389 4.25034 11.0511 3.66211 10.5856C3.07389 10.1201 2.59163 9.56096 2.21533 8.90813L0.990534 9.5756C0.870269 9.64114 0.746572 9.65519 0.619442 9.61774C0.492313 9.5803 0.395978 9.50145 0.330438 9.38118C0.264898 9.26092 0.250849 9.13722 0.288293 9.01009L1.25606 5.72428C1.2935 5.59715 1.37235 5.50082 1.49262 5.43528C1.61288 5.36974 1.73658 5.35569 1.86371 5.39313L5.14952 6.36089C5.27665 6.39834 5.37298 6.47719 5.43852 6.59746C5.50406 6.71772 5.51811 6.84142 5.48067 6.96855C5.44323 7.09568 5.36437 7.19201 5.24411 7.25755L3.94335 7.96642C4.19546 8.39138 4.51563 8.75668 4.90385 9.06232C5.29207 9.36795 5.72332 9.59062 6.19761 9.73031C6.85282 9.92329 7.51082 9.94439 8.17163 9.79362C8.83243 9.64285 9.41605 9.33916 9.9225 8.88256C10.0008 8.81528 10.2146 8.5674 10.564 8.13892C10.6362 8.03798 10.7261 8.00335 10.8337 8.03504L12.2419 8.44979C12.3054 8.46851 12.3536 8.50794 12.3864 8.56807C12.4192 8.62821 12.4262 8.69006 12.4075 8.75362ZM14.319 2.94011L13.3512 6.22592C13.3138 6.35305 13.2349 6.44938 13.1146 6.51492C12.9944 6.58046 12.8707 6.59451 12.7435 6.55707L9.45774 5.5893C9.33061 5.55186 9.23427 5.47301 9.16873 5.35274C9.10319 5.23248 9.08915 5.10878 9.12659 4.98165C9.16403 4.85452 9.24289 4.75818 9.36315 4.69264L10.6734 3.9786C10.147 3.09559 9.39245 2.50935 8.40964 2.21989C7.75444 2.02691 7.09643 2.00581 6.43563 2.15658C5.77483 2.30735 5.19121 2.61103 4.68476 3.06764C4.60649 3.13492 4.39267 3.3828 4.0433 3.81127C3.97106 3.91221 3.88115 3.94684 3.77358 3.91516L2.31404 3.48528C2.25047 3.46656 2.2023 3.42713 2.16953 3.367C2.13676 3.30687 2.12974 3.24502 2.14846 3.18146L2.16358 3.13011C2.86736 1.91331 3.84032 1.04546 5.08247 0.526569C6.32462 0.00767597 7.61801 -0.0537534 8.96265 0.342281C9.67653 0.552539 10.3309 0.892723 10.9257 1.36283C11.5206 1.83294 12.0069 2.39197 12.3846 3.03991L13.6167 2.3746C13.737 2.30906 13.8607 2.29501 13.9878 2.33245C14.1149 2.3699 14.2113 2.44875 14.2768 2.56901C14.3424 2.68928 14.3564 2.81298 14.319 2.94011Z" fill="#EC4A4A"></path></svg>